<svg width="21" height="23" fill="none" xmlns="http://www.w3.org/2000/svg"><path d="M19.896 18.944l-.072.069.072-.07a9.844 9.844 0 01-2.752-6.844v-2.021A6.656 6.656 0 0012.5 3.741V2.9c0-1.103-.897-2-2-2s-2 .897-2 2v.841a6.655 6.655 0 00-4.644 6.337v2.02a9.845 9.845 0 01-2.752 6.845.733.733 0 00.53 1.241h5.682a3.272 3.272 0 003.184 2.534c1.55 0 2.85-1.084 3.184-2.534h5.683a.733.733 0 00.529-1.24zM9.966 2.9a.534.534 0 011.067 0v.555a6.663 6.663 0 00-1.066 0V2.9zm.534 18.351a1.802 1.802 0 01-1.643-1.067h3.286a1.802 1.802 0 01-1.643 1.067zm-7.304-2.533a11.298 11.298 0 002.126-6.62v-2.02A5.184 5.184 0 0110.5 4.9a5.184 5.184 0 015.178 5.178v2.02c0 2.401.746 4.7 2.126 6.62H3.196z" fill="#C5C5C5" stroke="#C5C5C5" stroke-width=".2"/></svg>