<svg xmlns="http://www.w3.org/2000/svg" width="483" height="206"><path d="M483 88.238c0 38.305-26.05 65.301-62.053 65.301-36.001 0-62.052-26.996-62.052-65.301 0-35.796 29.751-60.922 62.052-60.922C453.25 27.316 483 52.442 483 88.238m-93.757.144c0 20.417 14.29 35.323 31.704 35.323 17.415 0 31.705-14.906 31.705-35.323 0-16.325-14.29-31.232-31.705-31.232s-31.704 14.907-31.704 31.232" fill="#0c9fb5"/><path d="M81.57 106.611v.494c.248 4.975 3.722 7.936 9.664 8.183h63.862a81.043 81.043 0 007.443-34.008C162.54 36.5 126.311.168 81.571.003v106.608" fill="#b7d52b"/><path d="M81.318 153.508c-27.037-2.24-38.202-14.886-38.202-43.424V9.52C17.476 23.173 0 50.191 0 81.278c0 44.864 36.393 81.256 81.277 81.256 13.241 0 25.742-3.166 36.783-8.779H87.774c-1.994 0-4.215 0-6.456-.247" fill="#edac09"/><path d="M155.086 115.294H91.244c-5.962-.247-9.437-3.228-9.683-8.183V.01h-.288c-13.797 0-26.791 3.433-38.161 9.499v100.583c0 28.518 11.164 41.183 38.202 43.424 2.241.227 4.462.227 6.456.227h30.286a81.525 81.525 0 0037.03-38.449" fill="#0c9fb5"/><path d="M275.667 88.343c0 38.592-26.236 65.815-62.525 65.815-36.29 0-62.526-27.223-62.526-65.815 0-36.064 29.998-61.374 62.526-61.374 32.547 0 62.525 25.31 62.525 61.374m-94.456.164c0 20.561 14.392 35.591 31.93 35.591 17.539 0 31.931-15.03 31.931-35.59 0-16.45-14.392-31.5-31.93-31.5-17.539 0-31.931 15.05-31.931 31.5" fill="#0c9fb5"/><path d="M378.767 169.484V91.888c.062-1.378.103-2.756.103-4.154a71.65 71.65 0 00-.103-3.639v-.329c-.02 0-.02-.02-.02-.02-2.118-33.638-30.862-56.913-61.93-56.913-32.28 0-62.052 25.125-62.052 60.901 0 38.326 26.05 65.322 62.052 65.322 11.967 0 22.823-2.981 31.993-8.368v23.316c-.185 4.05-3.023 6.476-7.875 6.661h-52.019A66.316 66.316 0 00319.1 206l29.915-.185c22.042-1.83 31.13-12.131 29.752-36.331m-61.95-46.262c-17.415 0-31.684-14.906-31.684-35.323 0-16.326 14.27-31.232 31.684-31.232 17.415 0 31.705 14.906 31.705 31.232 0 20.417-14.29 35.323-31.705 35.323" fill="#0c9fb5"/><path d="M70.964 75.279l-.021-.206c-.041-.411.103-.864.473-1.316.35-.411.534-.699.534-1.049 0-.37-.226-.637-.72-.637-.266 0-.575.082-.76.226l-.185-.473c.247-.205.679-.329 1.09-.329.884 0 1.275.555 1.275 1.131 0 .514-.288.905-.658 1.337-.33.39-.453.72-.432 1.11v.206zm.287 1.542c-.267 0-.452-.206-.452-.473 0-.288.206-.473.452-.473.288 0 .453.185.453.473 0 .267-.165.473-.453.473z" fill="#221e1f"/><path d="M453.886 150.597v2.817h-.39v-2.817h-1.008v-.37h2.405v.37zm5.198 2.815h-.391v-2.2c0-.37-.288-.7-.678-.7a.689.689 0 00-.679.7v2.2h-.39v-2.2c0-.37-.289-.7-.7-.7-.37 0-.678.33-.678.7v2.2h-.39v-2.2c0-.576.472-1.07 1.068-1.07.39 0 .72.206.884.494.185-.288.494-.494.884-.494.597 0 1.07.494 1.07 1.07v2.2m-377.503-.062C64.095 151.83 53.4 145.971 48 134.95c-1.689-3.444-2.446-5.75-3.547-10.792-.864-3.955-.87-4.295-1.008-59.282l-.14-55.303 3.52-1.634C56.47 3.46 66.31.983 76.875.37l4.506-.26v108.565l1.12 2.145c.943 1.804 1.496 2.337 3.476 3.35l2.355 1.204 33.169.114 33.168.113-1.432 2.843c-6.688 13.281-18.674 25.697-32.235 33.392l-3.148 1.786-17.335-.067c-9.535-.037-18.057-.13-18.938-.207zm-9.89-78.435c-.123-.124-.346.098-.497.493-.217.571-.171.617.224.225.274-.272.397-.595.274-.718zm1.274-2.293c.003-.165-.175-.3-.395-.3-.22 0-.398.405-.394.901.005.729.08.786.394.3.214-.33.391-.736.395-.9zm-1.196-.7c0-.22-.18-.401-.4-.401-.22 0-.4.18-.4.4 0 .22.18.4.4.4.22 0 .4-.18.4-.4z" fill="#0c9fb5"/><path d="M79.579 153.152c-4.913-.494-11.473-2.009-15.252-3.522-11.308-4.528-17.162-12.185-20.064-26.245-.592-2.866-.677-9.033-.81-58.508l-.148-55.303 3.519-1.634C56.424 3.482 66.365.964 76.675.378L81.381.11l.009 54.229c.008 51.929.04 54.296.75 55.83.91 1.966 2.532 3.53 4.648 4.484 1.495.674 3.81.73 34.74.836l33.14.113-1.558 3.09c-6.559 13.01-18.458 25.338-31.919 33.068l-3.243 1.863-17.382-.054c-9.56-.03-19.005-.217-20.987-.417zm-7.167-80.321c-.133-.133-.228.103-.21.526.018.466.113.561.241.241.116-.289.102-.634-.031-.767z" fill="#0c9fb5"/><path d="M79.78 153.173c-22.76-2.294-33.868-12.882-36.029-34.336-.266-2.648-.417-23.15-.417-56.712V9.56l3.504-1.627C56.424 3.483 66.372.963 76.675.378L81.381.11l.002 53.828c.002 36.326.14 54.32.423 55.34.56 2.017 2.393 4.033 4.699 5.169l1.885.928 33.134.124 33.135.123-1.443 2.88c-6.421 12.814-17.735 24.728-30.975 32.618l-4.2 2.503-17.43-.053c-9.585-.03-18.96-.208-20.832-.397z" fill="#0c9fb5"/></svg>