<svg width="22" height="22" fill="none" xmlns="http://www.w3.org/2000/svg"><path d="M20.667 2.956a.837.837 0 00-.91.757l-.11 1.217C17.764 1.975 14.497 0 10.713 0c-4.072 0-7.66 2.324-9.44 5.811a.837.837 0 101.49.762C4.272 3.62 7.3 1.674 10.714 1.674a8.918 8.918 0 017.531 4.16l-1.194-.852a.837.837 0 00-.972 1.362l3.619 2.585a.838.838 0 001.32-.605l.406-4.459a.837.837 0 00-.757-.91zM19.79 14.49a.837.837 0 00-1.127.365c-1.507 2.952-4.534 4.899-7.95 4.899a8.918 8.918 0 01-7.53-4.16l1.193.852a.837.837 0 00.973-1.363L1.73 12.5a.838.838 0 00-1.32.605l-.406 4.458a.837.837 0 101.667.152l.11-1.216c1.882 2.955 5.148 4.93 8.933 4.93 4.071 0 7.66-2.324 9.44-5.812a.837.837 0 00-.364-1.126z" fill="#38C6DD"/></svg>