<svg width="49" height="15" fill="none" xmlns="http://www.w3.org/2000/svg"><g clip-path="url(#clip0)"><path d="M9.897 3.343l-1.214 7.648h1.94l1.212-7.648H9.897zm5.849 3.115c-.678-.338-1.093-.567-1.093-.914.008-.315.351-.638 1.117-.638a3.338 3.338 0 011.445.283l.175.08.264-1.6a4.84 4.84 0 00-1.74-.316c-1.915 0-3.264 1.009-3.272 2.451-.016 1.065.965 1.655 1.7 2.01.75.363 1.005.599 1.005.922-.008.495-.606.724-1.165.724-.773 0-1.189-.118-1.82-.394l-.255-.118-.271 1.663c.455.205 1.293.386 2.163.395 2.035 0 3.36-.993 3.376-2.53.006-.844-.511-1.49-1.63-2.018zm6.88-3.09h-1.5c-.463 0-.814.134-1.015.614l-2.88 7.009h2.035l.56-1.518h2.277l.291 1.524h1.795l-1.564-7.63zM20.39 7.941c.04.004.781-2.477.781-2.477l.59 2.477H20.39zM7.063 3.343l-1.9 5.196-.207-1.025C4.605 6.332 3.504 5.047 2.274 4.41l1.74 6.574h2.052l3.049-7.639H7.063z" fill="#2394BC"/><path d="M4.317 4.331c-.148-.583-.62-.976-1.261-.985H.046l-.03.142c2.347.586 4.317 2.39 4.956 4.086L4.317 4.33z" fill="#EFC75E"/></g><path fill-rule="evenodd" clip-rule="evenodd" d="M41.1 11.236h-4.687V2.748h4.688v8.488z" fill="#FF5F00"/><path fill-rule="evenodd" clip-rule="evenodd" d="M36.71 6.992c0-1.722.8-3.256 2.046-4.244a5.31 5.31 0 00-3.31-1.154c-2.96 0-5.358 2.417-5.358 5.398 0 2.982 2.398 5.398 5.357 5.398a5.31 5.31 0 003.311-1.154 5.404 5.404 0 01-2.046-4.244z" fill="#EB001B"/><path fill-rule="evenodd" clip-rule="evenodd" d="M47.425 6.992c0 2.982-2.398 5.398-5.357 5.398a5.312 5.312 0 01-3.311-1.154 5.403 5.403 0 002.046-4.244c0-1.722-.8-3.256-2.046-4.244a5.312 5.312 0 013.311-1.154c2.959 0 5.357 2.417 5.357 5.398" fill="#F79410"/><defs><clipPath id="clip0"><path fill="#fff" transform="translate(.016 1.55)" d="M0 0h24.174v11.25H0z"/></clipPath></defs></svg>