<svg width="20" height="20" fill="none" xmlns="http://www.w3.org/2000/svg"><g clip-path="url(#clip0)" fill="#38C6DD"><path d="M4.674 3.996l7.973-2.098-.423-.823a1.143 1.143 0 00-1.504-.49L3.582 3.996h1.092zm10.448-2.038c-.098 0-.197.013-.296.04l-1.873.493-5.72 1.505h9.322l-.35-1.239a1.115 1.115 0 00-1.083-.799zm2.603 2.796h-16.6c-.355 0-.671.158-.878.407A1.07 1.07 0 000 5.837v12.065c0 .598.503 1.083 1.123 1.083h16.6c.62 0 1.123-.485 1.123-1.083v-3.021h-6.664c-1.053 0-1.91-.825-1.91-1.84v-2.41c0-.498.207-.95.542-1.282a1.916 1.916 0 011.366-.557h6.666V5.837c.002-.598-.501-1.083-1.121-1.083z"/><path d="M19.634 9.828a1.132 1.132 0 00-.757-.283H12.18c-.62 0-1.122.485-1.122 1.083v2.41c0 .598.503 1.083 1.123 1.083h6.695c.128 0 .249-.022.364-.059a1.09 1.09 0 00.393-.225c.224-.197.366-.483.366-.799v-2.41c0-.317-.142-.603-.366-.8zm-5.108 2.22a.552.552 0 01-.561.542h-.373a.552.552 0 01-.562-.542v-.36c0-.173.084-.326.216-.424a.581.581 0 01.346-.117h.373c.31 0 .561.243.561.542v.36z"/></g><defs><clipPath id="clip0"><path fill="#fff" transform="translate(0 .086)" d="M0 0h20v19.286H0z"/></clipPath></defs></svg>