<svg width="14" height="14" fill="none" xmlns="http://www.w3.org/2000/svg"><path d="M10.555 6.29a.547.547 0 100-1.095.547.547 0 000 1.094z" fill="#A4A4A4"/><path d="M11.813 1.094h-.711V.547a.547.547 0 00-1.094 0v.547H7.52V.547a.547.547 0 10-1.094 0v.547H3.965V.547a.547.547 0 10-1.094 0v.547h-.683A2.19 2.19 0 000 3.28v8.531A2.19 2.19 0 002.188 14H6.37a.547.547 0 100-1.094H2.187c-.603 0-1.093-.49-1.093-1.094v-8.53c0-.604.49-1.095 1.093-1.095h.684v.547a.547.547 0 101.094 0v-.546h2.46v.546a.547.547 0 101.095 0v-.546h2.488v.546a.547.547 0 101.094 0v-.546h.71c.604 0 1.094.49 1.094 1.093v3.117a.547.547 0 001.094 0V3.281a2.19 2.19 0 00-2.188-2.187z" fill="#A4A4A4"/><path d="M10.691 7.383a3.312 3.312 0 00-3.308 3.308A3.312 3.312 0 0010.69 14 3.312 3.312 0 0014 10.691a3.312 3.312 0 00-3.309-3.308zm0 5.523a2.217 2.217 0 01-2.214-2.215c0-1.22.993-2.214 2.214-2.214 1.222 0 2.215.993 2.215 2.214a2.217 2.217 0 01-2.215 2.215z" fill="#A4A4A4"/><path d="M11.484 10.145h-.246V9.57a.547.547 0 00-1.093 0v1.121c0 .302.244.547.546.547h.793a.547.547 0 000-1.093zM8.176 6.29a.547.547 0 100-1.095.547.547 0 000 1.094zM5.797 8.668a.547.547 0 100-1.094.547.547 0 000 1.094zM3.418 6.29a.547.547 0 100-1.095.547.547 0 000 1.094zm0 2.378a.547.547 0 100-1.094.547.547 0 000 1.094zm0 2.379a.547.547 0 100-1.094.547.547 0 000 1.094zm2.379 0a.547.547 0 100-1.094.547.547 0 000 1.094zm0-4.757a.547.547 0 100-1.095.547.547 0 000 1.094z" fill="#A4A4A4"/></svg>