<svg width="12" height="14" fill="none" xmlns="http://www.w3.org/2000/svg"><path d="M7.504 14H2.28a2.19 2.19 0 01-2.187-2.188v-7.41A2.19 2.19 0 012.28 2.215h5.223A2.19 2.19 0 019.69 4.402v7.41A2.19 2.19 0 017.504 14zM2.28 3.309c-.603 0-1.094.49-1.094 1.093v7.41c0 .604.491 1.094 1.094 1.094h5.223c.603 0 1.094-.49 1.094-1.094v-7.41c0-.603-.491-1.093-1.094-1.093H2.28zm9.598 7.136V2.187A2.19 2.19 0 009.69 0H3.62a.547.547 0 100 1.094h6.07c.603 0 1.094.49 1.094 1.093v8.258a.547.547 0 101.094 0z" fill="#fff"/></svg>