<svg width="13" height="13" fill="none" xmlns="http://www.w3.org/2000/svg"><path d="M11.125 1.125h-9.25A1.877 1.877 0 000 3v7c0 1.034.841 1.875 1.875 1.875h9.25A1.877 1.877 0 0013 10V3a1.877 1.877 0 00-1.875-1.875zm1.125 6.5H9.5c-.62 0-1.125-.505-1.125-1.125S8.88 5.375 9.5 5.375h2.75v2.25zm0-3H9.5A1.877 1.877 0 007.625 6.5c0 1.034.841 1.875 1.875 1.875h2.75V10c0 .62-.505 1.125-1.125 1.125h-9.25C1.255 11.125.75 10.62.75 10V3c0-.62.505-1.125 1.125-1.125h9.25c.62 0 1.125.505 1.125 1.125v1.625z" fill="#252525"/><path fill-rule="evenodd" clip-rule="evenodd" d="M1.875.875h9.25c1.172 0 2.125.953 2.125 2.125v7a2.127 2.127 0 01-2.125 2.125h-9.25A2.127 2.127 0 01-.25 10V3C-.25 1.828.703.875 1.875.875zm7.625 6.5H12v-1.75H9.5a.876.876 0 00-.875.875c0 .482.393.875.875.875zm0-3H12V3a.876.876 0 00-.875-.875h-9.25A.876.876 0 001 3v7c0 .482.393.875.875.875h9.25A.876.876 0 0012 10V8.625H9.5A2.127 2.127 0 017.375 6.5c0-1.172.953-2.125 2.125-2.125zm-7.625-3.25h9.25C12.159 1.125 13 1.966 13 3v7a1.877 1.877 0 01-1.875 1.875h-9.25A1.877 1.877 0 010 10V3c0-1.034.841-1.875 1.875-1.875zm10.375 6.5v-2.25H9.5c-.62 0-1.125.505-1.125 1.125S8.88 7.625 9.5 7.625h2.75zm0-3V3c0-.62-.505-1.125-1.125-1.125h-9.25C1.255 1.875.75 2.38.75 3v7c0 .62.505 1.125 1.125 1.125h9.25c.62 0 1.125-.505 1.125-1.125V8.375H9.5A1.877 1.877 0 017.625 6.5c0-1.034.841-1.875 1.875-1.875h2.75z" fill="#252525"/><path d="M10 6.125h-.5a.375.375 0 000 .75h.5a.375.375 0 000-.75z" fill="#252525"/><path fill-rule="evenodd" clip-rule="evenodd" d="M9.5 6.025h.5a.475.475 0 010 .95h-.5a.475.475 0 010-.95zm0 .1h.5a.375.375 0 010 .75h-.5a.375.375 0 010-.75z" fill="#252525"/></svg>