<?xml version="1.0" encoding="UTF-8"?><!DOCTYPE svg PUBLIC "-//W3C//DTD SVG 1.1//EN" "http://www.w3.org/Graphics/SVG/1.1/DTD/svg11.dtd"><svg xmlns="http://www.w3.org/2000/svg" xmlns:xlink="http://www.w3.org/1999/xlink" xmlns:dc="http://purl.org/dc/elements/1.1/" xmlns:cc="http://creativecommons.org/ns#" xmlns:rdf="http://www.w3.org/1999/02/22-rdf-syntax-ns#" xmlns:svg="http://www.w3.org/2000/svg" xmlns:sodipodi="http://sodipodi.sourceforge.net/DTD/sodipodi-0.dtd" xmlns:inkscape="http://www.inkscape.org/namespaces/inkscape"><defs>
<clipPath id="clip0">
<rect width="18.8" height="18.8" fill="white" transform="translate(0.200195 0.199951)"/>
</clipPath>
<clipPath id="clip0"><path fill="#fff" transform="translate(.778 .583)" d="M0 0h10.833v10.833H0z"/></clipPath>
<clipPath id="clip0">
<rect width="24.1736" height="11.25" fill="white" transform="translate(0.015625 1.54965)"/>
</clipPath>

<clipPath id="clip0">
<rect width="20" height="19.2857" fill="white" transform="translate(0 0.0856934)"/>
</clipPath>
</defs><symbol id="arrow-down" viewBox="0 0 12 7">
<path d="M1 1.17273L6 6.17273L11 1.17273" stroke="#22232F" stroke-width="1.5" stroke-linecap="round" stroke-linejoin="round"/>
</symbol><symbol id="arrow-left" viewBox="0 0 13 10">
<path d="M5 9L1 5M1 5L5 1M1 5L13 5" stroke="black"/>
</symbol><symbol id="arrow-right" viewBox="0 0 13 10">
<path d="M8 1L12 5M12 5L8 9M12 5H0" stroke="black"/>
</symbol><symbol id="bell-icon" viewBox="0 0 21 23">
<path d="M19.896 18.9435L19.8238 19.0127L19.896 18.9435C18.1215 17.093 17.1444 14.6623 17.1444 12.0986V10.0777C17.1444 7.11038 15.1892 4.59193 12.5 3.74126V2.89999C12.5 1.79711 11.6029 0.9 10.5 0.9C9.39712 0.9 8.50002 1.79711 8.50002 2.89999V3.74126C5.81075 4.59192 3.85559 7.11034 3.85559 10.0777V12.0986C3.85559 14.6623 2.87849 17.093 1.10406 18.9435C0.900692 19.1555 0.843538 19.4685 0.958819 19.7387C1.0741 20.009 1.33956 20.1844 1.63338 20.1844H7.31645C7.65015 21.6336 8.95061 22.7177 10.5 22.7177C12.0495 22.7177 13.3498 21.6336 13.6836 20.1844H19.3666C19.6605 20.1844 19.9259 20.009 20.0412 19.7387C20.1564 19.4685 20.0993 19.1556 19.896 18.9435ZM9.96668 2.89999C9.96668 2.606 10.206 2.36666 10.5 2.36666C10.794 2.36666 11.0333 2.606 11.0333 2.89999V3.45484C10.8574 3.44072 10.6796 3.43332 10.5 3.43332C10.3204 3.43332 10.1426 3.44072 9.96668 3.45484V2.89999ZM10.5 21.251C9.76889 21.251 9.13804 20.8125 8.85665 20.1844H12.1434C11.862 20.8125 11.2311 21.251 10.5 21.251ZM3.19563 18.7177C4.57605 16.7985 5.32225 14.499 5.32225 12.0986V10.0777C5.32225 7.22281 7.64508 4.89998 10.5 4.89998C13.3549 4.89998 15.6778 7.22281 15.6778 10.0777V12.0986C15.6778 14.499 16.424 16.7985 17.8044 18.7177H3.19563Z" fill="#C5C5C5" stroke="#C5C5C5" stroke-width="0.2"/>
</symbol><symbol id="build-icon" viewBox="0 0 19 19">
<g clip-path="url(#clip0)">
<path d="M18.9997 16.7952H0.201172V19H18.9997V16.7952Z" fill="#38C6DD"/>
<path d="M18.9997 5.00977H0.201172V7.21455H18.9997V5.00977Z" fill="#38C6DD"/>
<path d="M9.60064 0.199951L0.642578 3.90832H18.5587L9.60064 0.199951Z" fill="#38C6DD"/>
<path d="M4.06675 8.31671H1.85352V15.6933H4.06675V8.31671Z" fill="#38C6DD"/>
<path d="M8.4935 8.31671H6.28027V15.6933H8.4935V8.31671Z" fill="#38C6DD"/>
<path d="M12.9203 8.31671H10.707V15.6933H12.9203V8.31671Z" fill="#38C6DD"/>
<path d="M17.346 8.31671H15.1328V15.6933H17.346V8.31671Z" fill="#38C6DD"/>
</g>

</symbol><symbol id="calendar-icon" viewBox="0 0 14 14">
<path d="M10.5547 6.28906C10.8567 6.28906 11.1016 6.04422 11.1016 5.74219C11.1016 5.44016 10.8567 5.19531 10.5547 5.19531C10.2527 5.19531 10.0078 5.44016 10.0078 5.74219C10.0078 6.04422 10.2527 6.28906 10.5547 6.28906Z" fill="#A4A4A4"/>
<path d="M11.8125 1.09375H11.1016V0.546875C11.1016 0.244836 10.8567 0 10.5547 0C10.2526 0 10.0078 0.244836 10.0078 0.546875V1.09375H7.51953V0.546875C7.51953 0.244836 7.2747 0 6.97266 0C6.67062 0 6.42578 0.244836 6.42578 0.546875V1.09375H3.96484V0.546875C3.96484 0.244836 3.72001 0 3.41797 0C3.11593 0 2.87109 0.244836 2.87109 0.546875V1.09375H2.1875C0.981313 1.09375 0 2.07506 0 3.28125V11.8125C0 13.0187 0.981313 14 2.1875 14H6.37109C6.67313 14 6.91797 13.7552 6.91797 13.4531C6.91797 13.1511 6.67313 12.9062 6.37109 12.9062H2.1875C1.58441 12.9062 1.09375 12.4156 1.09375 11.8125V3.28125C1.09375 2.67816 1.58441 2.1875 2.1875 2.1875H2.87109V2.73438C2.87109 3.03641 3.11593 3.28125 3.41797 3.28125C3.72001 3.28125 3.96484 3.03641 3.96484 2.73438V2.1875H6.42578V2.73438C6.42578 3.03641 6.67062 3.28125 6.97266 3.28125C7.2747 3.28125 7.51953 3.03641 7.51953 2.73438V2.1875H10.0078V2.73438C10.0078 3.03641 10.2526 3.28125 10.5547 3.28125C10.8567 3.28125 11.1016 3.03641 11.1016 2.73438V2.1875H11.8125C12.4156 2.1875 12.9062 2.67816 12.9062 3.28125V6.39844C12.9062 6.70048 13.1511 6.94531 13.4531 6.94531C13.7552 6.94531 14 6.70048 14 6.39844V3.28125C14 2.07506 13.0187 1.09375 11.8125 1.09375Z" fill="#A4A4A4"/>
<path d="M10.6914 7.38281C8.86703 7.38281 7.38281 8.86703 7.38281 10.6914C7.38281 12.5158 8.86703 14 10.6914 14C12.5158 14 14 12.5158 14 10.6914C14 8.86703 12.5158 7.38281 10.6914 7.38281ZM10.6914 12.9062C9.47015 12.9062 8.47656 11.9127 8.47656 10.6914C8.47656 9.47012 9.47015 8.47656 10.6914 8.47656C11.9127 8.47656 12.9062 9.47012 12.9062 10.6914C12.9062 11.9127 11.9127 12.9062 10.6914 12.9062Z" fill="#A4A4A4"/>
<path d="M11.4844 10.1445H11.2383V9.57031C11.2383 9.26827 10.9934 9.02344 10.6914 9.02344C10.3894 9.02344 10.1445 9.26827 10.1445 9.57031V10.6914C10.1445 10.9934 10.3894 11.2383 10.6914 11.2383H11.4844C11.7864 11.2383 12.0312 10.9934 12.0312 10.6914C12.0312 10.3894 11.7864 10.1445 11.4844 10.1445Z" fill="#A4A4A4"/>
<path d="M8.17578 6.28906C8.47781 6.28906 8.72266 6.04422 8.72266 5.74219C8.72266 5.44016 8.47781 5.19531 8.17578 5.19531C7.87375 5.19531 7.62891 5.44016 7.62891 5.74219C7.62891 6.04422 7.87375 6.28906 8.17578 6.28906Z" fill="#A4A4A4"/>
<path d="M5.79688 8.66797C6.09891 8.66797 6.34375 8.42312 6.34375 8.12109C6.34375 7.81906 6.09891 7.57422 5.79688 7.57422C5.49484 7.57422 5.25 7.81906 5.25 8.12109C5.25 8.42312 5.49484 8.66797 5.79688 8.66797Z" fill="#A4A4A4"/>
<path d="M3.41797 6.28906C3.72 6.28906 3.96484 6.04422 3.96484 5.74219C3.96484 5.44016 3.72 5.19531 3.41797 5.19531C3.11594 5.19531 2.87109 5.44016 2.87109 5.74219C2.87109 6.04422 3.11594 6.28906 3.41797 6.28906Z" fill="#A4A4A4"/>
<path d="M3.41797 8.66797C3.72 8.66797 3.96484 8.42312 3.96484 8.12109C3.96484 7.81906 3.72 7.57422 3.41797 7.57422C3.11594 7.57422 2.87109 7.81906 2.87109 8.12109C2.87109 8.42312 3.11594 8.66797 3.41797 8.66797Z" fill="#A4A4A4"/>
<path d="M3.41797 11.0469C3.72 11.0469 3.96484 10.802 3.96484 10.5C3.96484 10.198 3.72 9.95312 3.41797 9.95312C3.11594 9.95312 2.87109 10.198 2.87109 10.5C2.87109 10.802 3.11594 11.0469 3.41797 11.0469Z" fill="#A4A4A4"/>
<path d="M5.79688 11.0469C6.09891 11.0469 6.34375 10.802 6.34375 10.5C6.34375 10.198 6.09891 9.95312 5.79688 9.95312C5.49484 9.95312 5.25 10.198 5.25 10.5C5.25 10.802 5.49484 11.0469 5.79688 11.0469Z" fill="#A4A4A4"/>
<path d="M5.79688 6.28906C6.09891 6.28906 6.34375 6.04422 6.34375 5.74219C6.34375 5.44016 6.09891 5.19531 5.79688 5.19531C5.49484 5.19531 5.25 5.44016 5.25 5.74219C5.25 6.04422 5.49484 6.28906 5.79688 6.28906Z" fill="#A4A4A4"/>
</symbol><symbol id="copy-icon" viewBox="0 0 12 14">
<path d="M7.50391 14H2.28125C1.07503 14 0.09375 13.0187 0.09375 11.8125V4.40234C0.09375 3.19612 1.07503 2.21484 2.28125 2.21484H7.50391C8.71013 2.21484 9.69141 3.19612 9.69141 4.40234V11.8125C9.69141 13.0187 8.71013 14 7.50391 14ZM2.28125 3.30859C1.67819 3.30859 1.1875 3.79929 1.1875 4.40234V11.8125C1.1875 12.4156 1.67819 12.9062 2.28125 12.9062H7.50391C8.10696 12.9062 8.59766 12.4156 8.59766 11.8125V4.40234C8.59766 3.79929 8.10696 3.30859 7.50391 3.30859H2.28125ZM11.8789 10.4453V2.1875C11.8789 0.981277 10.8976 0 9.69141 0H3.62109C3.31903 0 3.07422 0.244812 3.07422 0.546875C3.07422 0.848938 3.31903 1.09375 3.62109 1.09375H9.69141C10.2945 1.09375 10.7852 1.58444 10.7852 2.1875V10.4453C10.7852 10.7474 11.03 10.9922 11.332 10.9922C11.6341 10.9922 11.8789 10.7474 11.8789 10.4453Z" fill="white"/>
</symbol><symbol id="eye-icon" viewBox="0 0 20 20">
<path d="M19.8729 9.611C19.6942 9.36659 15.4371 3.62638 9.9999 3.62638C4.56274 3.62638 0.305391 9.36659 0.126914 9.61077C-0.0423048 9.84264 -0.0423048 10.1571 0.126914 10.389C0.305391 10.6334 4.56274 16.3736 9.9999 16.3736C15.4371 16.3736 19.6942 10.6334 19.8729 10.3892C20.0423 10.1574 20.0423 9.84264 19.8729 9.611ZM9.9999 15.055C5.99486 15.055 2.52606 11.2451 1.49922 9.99956C2.52473 8.75295 5.98626 4.94506 9.9999 4.94506C14.0048 4.94506 17.4733 8.75428 18.5006 10.0005C17.4751 11.247 14.0135 15.055 9.9999 15.055Z" fill="#9599A9"/>
<path d="M9.99903 6.04396C7.8177 6.04396 6.04297 7.81869 6.04297 10C6.04297 12.1814 7.8177 13.9561 9.99903 13.9561C12.1804 13.9561 13.9551 12.1814 13.9551 10C13.9551 7.81869 12.1804 6.04396 9.99903 6.04396ZM9.99903 12.6374C8.54473 12.6374 7.36168 11.4543 7.36168 10C7.36168 8.54576 8.54477 7.36267 9.99903 7.36267C11.4533 7.36267 12.6364 8.54576 12.6364 10C12.6364 11.4543 11.4533 12.6374 9.99903 12.6374Z" fill="#9599A9"/>
</symbol><symbol id="info-icon" viewBox="0 0 24 24">
<path d="M13 8V6h-2v2h2zM13 18v-8h-2v8h2z" fill="currentColor"/>
<path fill-rule="evenodd" clip-rule="evenodd" d="M22 12c0-5.523-4.477-10-10-10S2 6.477 2 12s4.477 10 10 10 10-4.477 10-10zm-2 0a8 8 0 10-16 0 8 8 0 0016 0z" fill="currentColor"/>
</symbol><symbol id="line-icon" viewBox="0 0 20 15">
<rect x="0.690196" y="12.6872" width="20.5996" height="2.18664" rx="1.09332" transform="rotate(-34.4211 0.690196 12.6872)" fill="#9599A9" stroke="white" stroke-width="0.7"/>
</symbol><symbol id="logo">
  <metadata id="metadata3017">
    <rdf:RDF>
      <cc:Work rdf:about="">
        <dc:format>image/svg+xml</dc:format>
        <dc:type rdf:resource="http://purl.org/dc/dcmitype/StillImage"/>
      </cc:Work>
    </rdf:RDF>
  </metadata>
  
  <sodipodi:namedview pagecolor="#ffffff" bordercolor="#666666" borderopacity="1" objecttolerance="10" gridtolerance="10" guidetolerance="10" inkscape:pageopacity="0" inkscape:pageshadow="2" inkscape:window-width="1366" inkscape:window-height="706" id="namedview3013" showgrid="false" inkscape:zoom="2.4968944" inkscape:cx="241.5" inkscape:cy="103" inkscape:window-x="-8" inkscape:window-y="-8" inkscape:window-maximized="1" inkscape:current-layer="layer1"/>
  <g inkscape:label="Layer 1" inkscape:groupmode="layer" id="layer1" transform="translate(101.87241,-561.62712)">
    <path id="path36291" d="m 381.12758,649.86512 c 0,38.30478 -26.05054,65.30111 -62.0525,65.30111 -36.00197,0 -62.05251,-26.99633 -62.05251,-65.30111 0,-35.79635 29.75149,-60.92166 62.05251,-60.92166 32.30102,0 62.0525,25.12531 62.0525,60.92166 m -93.75726,0.14393 c 0,20.41688 14.28976,35.32346 31.70476,35.32346 17.415,0 31.70476,-14.90658 31.70476,-35.32346 0,-16.32528 -14.28976,-31.23186 -31.70476,-31.23186 -17.415,0 -31.70476,14.90658 -31.70476,31.23186" style="fill:#0c9fb5;fill-rule:nonzero;stroke:none"/>
    <path id="path36295" d="m -20.301537,668.23826 0,0.49346 c 0.246729,4.97571 3.721505,7.93647 9.663577,8.1832 l 6.9495515,0 56.9123025,0 c 4.770106,-10.34209 7.443011,-21.8767 7.443011,-34.00757 0,-44.78143 -36.228135,-81.11237 -80.968442,-81.27686 l 0,99.16476 0,7.44301" style="fill:#b7d52b;fill-rule:nonzero;stroke:none"/>
    <path id="path36299" d="m -20.554435,715.13539 c -27.037456,-2.24113 -38.201972,-14.88602 -38.201972,-43.42441 l 0,-100.56289 c -25.639322,13.65237 -43.116003,40.66927 -43.116003,71.7572 0,44.86367 36.39262,81.25629 81.276853,81.25629 13.2411573,0 25.7421255,-3.16636 36.783277,-8.77946 l -30.286063,0 c -1.994398,0 -4.214965,0 -6.456092,-0.24673" style="fill:#edac09;fill-rule:nonzero;stroke:none"/>
    <path id="path36303" d="m 53.213614,676.92108 -56.8917421,0 -6.9495519,0 c -5.962632,-0.24673 -9.437408,-3.22804 -9.684138,-8.1832 l 0,-0.49345 0,-7.44302 0,-99.16475 c -0.102804,0 -0.185047,0 -0.287851,0 -13.796299,0 -26.790726,3.43366 -38.16085,9.49909 l 0,100.58345 c 0,28.51783 11.164516,41.18329 38.201972,43.42442 2.241127,0.22617 4.461694,0.22617 6.456092,0.22617 l 30.286063,0 c 16.263595,-8.26545 29.360826,-21.83558 37.030006,-38.44871" style="fill:#0c9fb5;fill-rule:nonzero;stroke:none"/>
    <path id="path36307" d="m 173.7945,649.96998 c 0,38.59263 -26.23559,65.81513 -62.5254,65.81513 -36.28982,0 -62.525405,-27.2225 -62.525405,-65.81513 0,-36.06365 29.998212,-61.37399 62.525405,-61.37399 32.54775,0 62.5254,25.31034 62.5254,61.37399 m -94.45633,0.16449 c 0,20.5608 14.392562,35.59075 31.93093,35.59075 17.53836,0 31.93092,-15.02995 31.93092,-35.59075 0,-16.44864 -14.39256,-31.49915 -31.93092,-31.49915 -17.538368,0 -31.93093,15.05051 -31.93093,31.49915" style="fill:#0c9fb5;fill-rule:nonzero;stroke:none"/>
    <path id="path36311" d="m 276.89459,731.11114 0,-77.59647 c 0.0617,-1.37758 0.1028,-2.75515 0.1028,-4.15329 0,-1.21308 -0.0411,-2.42617 -0.1028,-3.63926 l 0,-0.32897 c -0.0206,0 -0.0206,-0.0206 -0.0206,-0.0206 -2.11776,-33.63748 -30.86177,-56.9123 -61.92914,-56.9123 -32.28046,0 -62.0525,25.1253 -62.0525,60.90109 0,38.32534 26.05053,65.32167 62.0525,65.32167 11.96639,0 22.82249,-2.98131 31.99261,-8.36824 l 0,23.31595 c -0.18505,4.05048 -3.02244,6.47665 -7.87479,6.6617 l -52.01883,0 c 6.25048,13.54957 16.92154,24.61128 30.18326,31.33466 l 29.91597,-0.18504 c 22.04118,-1.82992 31.12905,-12.13088 29.75148,-36.33094 m -61.9497,-46.26181 c -17.415,0 -31.6842,-14.90658 -31.6842,-35.32346 0,-16.32528 14.2692,-31.23186 31.6842,-31.23186 17.415,0 31.70476,14.90658 31.70476,31.23186 0,20.41688 -14.28976,35.32346 -31.70476,35.32346" style="fill:#0c9fb5;fill-rule:nonzero;stroke:none"/>
    <path id="path36315" d="m -30.908856,636.90565 -0.02056,-0.20561 c -0.04112,-0.41122 0.102804,-0.86355 0.472898,-1.31589 0.349534,-0.41122 0.534581,-0.69907 0.534581,-1.0486 0,-0.3701 -0.226169,-0.63739 -0.719628,-0.63739 -0.267291,0 -0.575703,0.0822 -0.76075,0.22617 l -0.185047,-0.4729 c 0.24673,-0.2056 0.678506,-0.32897 1.089722,-0.32897 0.884115,0 1.27477,0.55514 1.27477,1.13085 0,0.51402 -0.287851,0.90467 -0.657945,1.33645 -0.328973,0.39065 -0.452338,0.71963 -0.431777,1.11028 l 0,0.20561 z m 0.287852,1.54206 c -0.267291,0 -0.452338,-0.20561 -0.452338,-0.4729 0,-0.28785 0.205608,-0.4729 0.452338,-0.4729 0.287851,0 0.452337,0.18505 0.452337,0.4729 0,0.26729 -0.164486,0.4729 -0.452337,0.4729 z" style="fill:#221e1f;fill-rule:nonzero;stroke:none"/>
    <path id="path36319" d="m 352.01348,712.22398 0,2.81683 -0.39065,0 0,-2.81683 -1.00748,0 0,-0.37009 2.40561,0 0,0.37009 z" style="fill:#0c9fb5;fill-rule:nonzero;stroke:none"/>
    <path id="path36323" d="m 357.21125,715.03876 -0.39065,0 0,-2.20001 c 0,-0.37009 -0.28785,-0.69907 -0.67851,-0.69907 -0.39065,0 -0.6785,0.32898 -0.6785,0.69907 l 0,2.20001 -0.39066,0 0,-2.20001 c 0,-0.37009 -0.28785,-0.69907 -0.69907,-0.69907 -0.37009,0 -0.6785,0.32898 -0.6785,0.69907 l 0,2.20001 -0.39066,0 0,-2.20001 c 0,-0.5757 0.4729,-1.06916 1.06916,-1.06916 0.39066,0 0.71963,0.20561 0.88412,0.49346 0.18505,-0.28785 0.49346,-0.49346 0.88411,-0.49346 0.59627,0 1.06916,0.49346 1.06916,1.06916 l 0,2.20001" style="fill:#0c9fb5;fill-rule:nonzero;stroke:none"/>
    <path style="fill:#0c9fb5;fill-opacity:1" d="" id="path3019" inkscape:connector-curvature="0" transform="translate(-101.87241,561.62712)"/>
    <path style="fill:#0c9fb5;fill-opacity:1" d="" id="path3021" inkscape:connector-curvature="0" transform="translate(-101.87241,561.62712)"/>
    <path style="fill:#0c9fb5;fill-opacity:1" d="m 81.581343,153.34912 c -17.486677,-1.5185 -28.181634,-7.37759 -33.58263,-18.3978 -1.6883,-3.44482 -2.446061,-5.75051 -3.546876,-10.79233 -0.863491,-3.95485 -0.869267,-4.29455 -1.007827,-59.281563 L 43.30465,9.573511 46.823594,7.9397579 C 56.469979,3.4611937 66.310045,0.98296589 76.875498,0.37116392 l 4.505597,-0.26090061 0,54.28271569 0,54.282721 1.120706,2.14528 c 0.942581,1.8043 1.494999,2.33673 3.475607,3.34983 l 2.354902,1.20456 33.1683,0.11334 33.16829,0.11333 -1.43147,2.84253 c -6.68839,13.28138 -18.67403,25.69715 -32.2352,33.39204 l -3.14808,1.78628 -17.33541,-0.0673 c -9.534472,-0.037 -18.056302,-0.12992 -18.937397,-0.20644 z M 71.691807,74.914527 c -0.123308,-0.123309 -0.347251,0.09897 -0.49765,0.493946 -0.217344,0.570789 -0.171341,0.61679 0.224197,0.224198 0.273707,-0.271673 0.396761,-0.594835 0.273453,-0.718144 l 0,0 z m 1.272707,-2.292263 c 0.0034,-0.165206 -0.174091,-0.300373 -0.394365,-0.300373 -0.220273,0 -0.397737,0.405503 -0.394364,0.901119 0.005,0.728681 0.08042,0.786161 0.394364,0.300373 0.213528,-0.33041 0.390992,-0.735914 0.394365,-0.901119 z m -1.19536,-0.700871 c 0,-0.220274 -0.180224,-0.400497 -0.400497,-0.400497 -0.220274,0 -0.400498,0.180223 -0.400498,0.400497 0,0.220274 0.180224,0.400498 0.400498,0.400498 0.220273,0 0.400497,-0.180224 0.400497,-0.400498 z" id="path3023" inkscape:connector-curvature="0" transform="translate(-101.87241,561.62712)"/>
    <path style="fill:#0c9fb5;fill-opacity:1" d="M 79.578856,153.15242 C 74.665597,152.6582 68.10585,151.14333 64.327334,149.63035 53.019186,145.10234 47.164728,137.44452 44.262823,123.38532 43.67121,120.51907 43.585856,114.35189 43.453076,64.877427 L 43.30465,9.573511 46.823594,7.9397579 C 56.424837,3.4821521 66.365395,0.9640419 76.675249,0.37783329 l 4.705846,-0.26756998 0.0088,54.22832769 c 0.0084,51.929169 0.04024,54.296249 0.750493,55.830319 0.910382,1.96632 2.531515,3.53057 4.647428,4.48435 1.495233,0.67399 3.810405,0.72967 34.740989,0.83545 l 33.139,0.11333 -1.55811,3.09065 c -6.55871,13.00982 -18.45746,25.33695 -31.91845,33.06756 l -3.24333,1.86264 -17.38229,-0.054 c -9.560258,-0.0297 -19.004302,-0.21711 -20.986764,-0.41652 z M 72.411619,72.830855 c -0.133082,-0.133082 -0.227739,0.103464 -0.210349,0.525653 0.01922,0.466559 0.114118,0.561457 0.241967,0.241968 0.115692,-0.289111 0.101464,-0.63454 -0.03162,-0.767621 l 10e-7,0 z" id="path3025" inkscape:connector-curvature="0" transform="translate(-101.87241,561.62712)"/>
    <path style="fill:#0c9fb5;fill-opacity:1" d="M 79.779104,153.17327 C 57.020913,150.87903 45.911693,140.29144 43.751451,118.83729 43.484811,116.1892 43.333831,95.686239 43.333831,62.124855 l 0,-52.5649016 3.504353,-1.6269747 C 56.423969,3.4825639 66.371604,0.9636889 76.675249,0.37783329 l 4.705846,-0.26756998 0.0022,53.82783069 c 0.0015,36.325452 0.138835,54.319726 0.422345,55.340636 0.559933,2.01631 2.393062,4.03236 4.699367,5.16832 l 1.884761,0.92832 33.134569,0.12324 33.13456,0.12323 -1.44337,2.8805 c -6.42068,12.81355 -17.73493,24.72794 -30.97449,32.61744 l -4.20052,2.50311 -17.42861,-0.0532 c -9.585732,-0.0293 -18.96051,-0.20765 -20.832836,-0.3964 z" id="path3027" inkscape:connector-curvature="0" transform="translate(-101.87241,561.62712)"/>
  </g>
</symbol><symbol id="more-icon" viewBox="0 0 11 7">
<rect y="3.5" width="1.75" height="3.5" fill="#2AAE7D"/>
<rect x="2.91699" y="2.33334" width="1.75" height="4.66667" fill="#2AAE7D"/>
<rect x="5.83301" y="1.16666" width="1.75" height="5.83333" fill="#2AAE7D"/>
<rect x="8.75" width="1.75" height="7" fill="#2AAE7D"/>
</symbol><symbol id="polygon" viewBox="0 0 1200 84">
<path d="M0 80L1200 0V84H0V80Z" fill="#FFFFFF"/>
</symbol><symbol id="refresh-icon" viewBox="0 0 10 14">
<path fill-rule="evenodd" clip-rule="evenodd" d="M0.199775 10.1538C0.466142 9.88744 0.898009 9.88744 1.16438 10.1538L2.6818 11.6712L2.6818 1.02633C2.6818 0.649633 2.98717 0.344257 3.36387 0.344257C3.74057 0.344257 4.04595 0.649633 4.04595 1.02633L4.04595 13.3179C4.04595 13.5938 3.87977 13.8425 3.62489 13.9481C3.37002 14.0536 3.07664 13.9953 2.88157 13.8002L0.199775 11.1184C-0.0665919 10.852 -0.0665919 10.4202 0.199775 10.1538Z" fill="white"/>
<path fill-rule="evenodd" clip-rule="evenodd" d="M9.49944 4.19043C9.23308 4.4568 8.80121 4.4568 8.53484 4.19043L7.01742 2.67301L7.01742 13.3179C7.01742 13.6946 6.71205 14 6.33535 14C5.95865 14 5.65327 13.6946 5.65327 13.3179L5.65327 1.02633C5.65327 0.75046 5.81945 0.501751 6.07433 0.396178C6.3292 0.290606 6.62257 0.348961 6.81765 0.544034L9.49944 3.22583C9.76581 3.4922 9.76581 3.92406 9.49944 4.19043Z" fill="white"/>
</symbol><symbol id="search-icon"><path opacity=".3" fill-rule="evenodd" clip-rule="evenodd" d="M9.163 5.582a3.582 3.582 0 11-7.163 0 3.582 3.582 0 017.163 0zm-.836 3.667a4.582 4.582 0 11.572-.508l1.99 1.99a.382.382 0 11-.54.54L8.326 9.248z" fill="#000"/><path opacity=".3" fill-rule="evenodd" clip-rule="evenodd" d="M5.582 9.063a3.482 3.482 0 100-6.963 3.482 3.482 0 000 6.963zm2.736.318a4.682 4.682 0 11.72-.642l1.921 1.92a.482.482 0 01-.68.682l-1.961-1.96zm.01-.132a4.582 4.582 0 11.572-.508l1.989 1.99a.382.382 0 01-.54.54L8.328 9.248zm-2.746-.086a3.582 3.582 0 100-7.163 3.582 3.582 0 000 7.163z" fill="#000"/></symbol><symbol id="settings-icon" viewBox="0 0 17 16">
<path d="M15.9129 1.38775H6.04638C5.77512 0.582103 5.01309 3.05176e-05 4.11714 3.05176e-05C3.22118 3.05176e-05 2.45915 0.582103 2.18789 1.38775H0.647803C0.290043 1.38775 0 1.6778 0 2.03556C0 2.39332 0.290043 2.68336 0.647803 2.68336H2.18793C2.45919 3.48901 3.22122 4.07109 4.11718 4.07109C5.01313 4.07109 5.77517 3.48901 6.04642 2.68336H15.9129C16.2707 2.68336 16.5607 2.39332 16.5607 2.03556C16.5607 1.6778 16.2707 1.38775 15.9129 1.38775ZM4.11714 2.77548C3.70915 2.77548 3.37721 2.44354 3.37721 2.03556C3.37721 1.62757 3.70915 1.29564 4.11714 1.29564C4.52512 1.29564 4.85706 1.62757 4.85706 2.03556C4.85706 2.44354 4.52512 2.77548 4.11714 2.77548Z" fill="white"/>
<path d="M15.9129 6.93869H14.3728C14.1015 6.13304 13.3394 5.55096 12.4435 5.55096C11.5476 5.55096 10.7856 6.13304 10.5143 6.93869H0.647803C0.290043 6.93869 0 7.22873 0 7.58649C0 7.94425 0.290043 8.23429 0.647803 8.23429H10.5143C10.7856 9.03995 11.5477 9.62202 12.4436 9.62202C13.3395 9.62202 14.1016 9.03995 14.3728 8.23429H15.9129C16.2707 8.23429 16.5607 7.94425 16.5607 7.58649C16.5607 7.22873 16.2707 6.93869 15.9129 6.93869ZM12.4436 8.32641C12.0356 8.32641 11.7036 7.99448 11.7036 7.58649C11.7036 7.17851 12.0356 6.84657 12.4436 6.84657C12.8516 6.84657 13.1835 7.17851 13.1835 7.58649C13.1835 7.99448 12.8516 8.32641 12.4436 8.32641Z" fill="white"/>
<path d="M15.9129 12.4896H8.82187C8.55061 11.684 7.78858 11.1019 6.89263 11.1019C5.99667 11.1019 5.23464 11.684 4.96338 12.4896H0.647803C0.290043 12.4896 0 12.7797 0 13.1374C0 13.4952 0.290043 13.7852 0.647803 13.7852H4.96338C5.23464 14.5909 5.99667 15.173 6.89263 15.173C7.78858 15.173 8.55061 14.5909 8.82187 13.7852H15.9129C16.2707 13.7852 16.5607 13.4952 16.5607 13.1374C16.5607 12.7797 16.2707 12.4896 15.9129 12.4896ZM6.89263 13.8774C6.48464 13.8774 6.15271 13.5455 6.15271 13.1375C6.15271 12.7295 6.48464 12.3976 6.89263 12.3976C7.30061 12.3976 7.63255 12.7295 7.63255 13.1374C7.63255 13.5454 7.30061 13.8774 6.89263 13.8774Z" fill="white"/>
</symbol><symbol id="star-icon" viewBox="0 0 16 16">
<path d="M8 0L10.3511 4.76393L15.6085 5.52786L11.8042 9.23607L12.7023 14.4721L8 12L3.29772 14.4721L4.19577 9.23607L0.391548 5.52786L5.64886 4.76393L8 0Z" fill="#FFDD2A"/>
</symbol><symbol id="swap-icon" viewBox="0 0 22 22">
<path d="M20.6666 2.9559C20.2062 2.91393 19.799 3.25313 19.757 3.71349L19.6461 4.93006C17.7645 1.97512 14.4983 0 10.7138 0C6.64245 0 3.05451 2.32366 1.27341 5.81119C1.06315 6.22288 1.22645 6.72706 1.63814 6.93732C2.04991 7.14758 2.55401 6.98432 2.76427 6.57259C4.27162 3.62108 7.29859 1.67404 10.7138 1.67404C13.8265 1.67404 16.6357 3.29498 18.245 5.83438L17.0515 4.982C16.6753 4.71336 16.1526 4.80049 15.8839 5.17665C15.6153 5.55285 15.7024 6.07557 16.0786 6.34425L19.6976 8.92902C20.2281 9.30714 20.9597 8.96099 21.0177 8.32389L21.4241 3.86549C21.4661 3.40509 21.1269 2.99788 20.6666 2.9559Z" fill="#38C6DD"/>
<path d="M19.7895 14.4904C19.3777 14.2801 18.8736 14.4434 18.6633 14.8551C17.156 17.8066 14.129 19.7536 10.7138 19.7536C7.60108 19.7536 4.79195 18.1327 3.18261 15.5933L4.37607 16.4457C4.75227 16.7143 5.27499 16.6272 5.54368 16.251C5.81232 15.8748 5.72519 15.3521 5.34903 15.0834L1.72995 12.4987C1.20602 12.1244 0.468519 12.4601 0.409928 13.1038L0.00351163 17.5622C-0.038465 18.0226 0.300738 18.4298 0.761059 18.4717C1.22201 18.5136 1.62867 18.1741 1.67061 17.7142L1.78151 16.4976C3.66306 19.4526 6.92928 21.4277 10.7138 21.4277C14.7852 21.4277 18.3731 19.104 20.1542 15.6165C20.3645 15.2048 20.2012 14.7006 19.7895 14.4904Z" fill="#38C6DD"/>
</symbol><symbol id="telegram-icon"><g clip-path="url(#clip0)"><path d="M5.03 7.436l-.18 2.52c.256 0 .367-.11.5-.242l1.203-1.149 2.49 1.824c.457.255.779.12.902-.42l1.635-7.661c.146-.676-.244-.94-.689-.774l-9.61 3.68c-.656.254-.646.62-.111.785l2.457.764 5.707-3.57c.268-.179.512-.08.311.098L5.03 7.436z" fill="#fff"/></g></symbol><symbol id="visa" viewBox="0 0 49 15">
<g clip-path="url(#clip0)">
<path d="M9.89665 3.34346L8.68343 10.9906H10.6226L11.8351 3.34346H9.89665ZM15.7459 6.45846C15.0683 6.1195 14.6528 5.89073 14.6528 5.54405C14.6611 5.22884 15.0041 4.90591 15.7701 4.90591C16.4001 4.88988 16.8632 5.03985 17.2145 5.18906L17.3905 5.26862L17.6541 3.66866C17.2711 3.51869 16.6638 3.35345 15.9136 3.35345C13.9986 3.35345 12.6502 4.36193 12.6418 5.80429C12.626 6.86867 13.6072 7.45931 14.3416 7.81363C15.0917 8.17709 15.3471 8.41274 15.3471 8.73567C15.3388 9.23148 14.7405 9.46025 14.1822 9.46025C13.4087 9.46025 12.9932 9.34243 12.3624 9.06616L12.1071 8.94833L11.8359 10.6111C12.2914 10.8162 13.1292 10.9967 13.9987 11.0059C16.0338 11.0059 17.3581 10.0127 17.3747 8.47551C17.3814 7.63227 16.8639 6.98641 15.7459 6.45846ZM22.6255 3.36713H21.1252C20.6629 3.36713 20.3116 3.50182 20.1114 3.98235L17.231 10.9906H19.2661L19.8266 9.47326H22.1035L22.3943 10.9967H24.1892L22.6255 3.36713ZM20.391 7.94203C20.4303 7.94589 21.1721 5.46516 21.1721 5.46516L21.7629 7.94203C21.7629 7.94203 20.774 7.94203 20.391 7.94203ZM7.06308 3.34346L5.16317 8.53896L4.9562 7.51436C4.60491 6.33216 3.50354 5.04749 2.27441 4.40935L4.01416 10.9829H6.06594L9.11485 3.3443H7.06308V3.34346Z" fill="#2394BC"/>
<path d="M4.31703 4.33116C4.16897 3.74807 3.69679 3.35481 3.05551 3.34642H0.0466121L0.015625 3.48791C2.36277 4.07402 4.33285 5.87749 4.97198 7.57389L4.31703 4.33116Z" fill="#EFC75E"/>
</g>
<path fill-rule="evenodd" clip-rule="evenodd" d="M41.1009 11.2361H36.4131V2.7478H41.1011L41.1009 11.2361Z" fill="#FF5F00"/>
<path fill-rule="evenodd" clip-rule="evenodd" d="M36.7098 6.99214C36.7098 5.27029 37.51 3.73646 38.756 2.74798C37.813 1.99881 36.6461 1.59196 35.4452 1.59377C32.4864 1.59377 30.0879 4.01066 30.0879 6.99214C30.0879 9.97357 32.4864 12.3905 35.4452 12.3905C36.6461 12.3923 37.8131 11.9854 38.7561 11.2363C37.5102 10.2479 36.7098 8.71405 36.7098 6.99214Z" fill="#EB001B"/>
<path fill-rule="evenodd" clip-rule="evenodd" d="M47.4255 6.99214C47.4255 9.97356 45.027 12.3905 42.0682 12.3905C40.8672 12.3922 39.7 11.9854 38.7568 11.2362C40.0032 10.2478 40.8034 8.71405 40.8034 6.99214C40.8034 5.27017 40.0032 3.73646 38.7568 2.74798C39.7 1.99881 40.8671 1.59202 42.0681 1.59377C45.0269 1.59377 47.4254 4.01066 47.4254 6.99214" fill="#F79410"/>

</symbol><symbol id="wallet-icon" viewBox="0 0 20 20">
<g clip-path="url(#clip0)">
<path d="M4.67355 3.99612L12.6466 1.89754L12.2244 1.07457C11.9481 0.539638 11.2743 0.318735 10.7196 0.585118L3.58203 3.99612H4.67355Z" fill="#38C6DD"/>
<path d="M15.1224 1.95819C15.0236 1.95819 14.9247 1.97119 14.8259 1.99717L12.9528 2.49096L7.23242 3.99613H13.7254H16.5553L16.2049 2.75734C16.0702 2.27439 15.6165 1.95819 15.1224 1.95819Z" fill="#38C6DD"/>
<path d="M17.7249 4.75412H17.4688H17.1207H16.7726H14.1157H4.35261H3.07243H1.99439H1.7945H1.12521C0.770354 4.75412 0.453678 4.91222 0.247052 5.16127C0.152723 5.27606 0.0808535 5.40817 0.0404267 5.55327C0.0157215 5.64423 0 5.73952 0 5.83698V5.96692V7.20138V17.9022C0 18.4999 0.503088 18.985 1.12296 18.985H17.7226C18.3425 18.985 18.8456 18.4999 18.8456 17.9022V14.881H12.1819C11.1286 14.881 10.2729 14.0559 10.2729 13.0402V12.0483V11.7126V11.3769V10.6319C10.2729 10.1338 10.4795 9.68115 10.8142 9.34979C11.1106 9.05523 11.5081 8.85599 11.9528 8.80618C12.027 8.79754 12.1033 8.79318 12.1797 8.79318H17.9113H18.2594H18.6075H18.8456V5.83698C18.8478 5.23924 18.3448 4.75412 17.7249 4.75412Z" fill="#38C6DD"/>
<path d="M19.6336 9.8284C19.5213 9.72877 19.3887 9.65297 19.2405 9.60316C19.126 9.56637 19.0047 9.54471 18.8767 9.54471H18.8475H18.825H18.4769H17.2214H12.1816C11.5617 9.54471 11.0586 10.0298 11.0586 10.6276V11.1668V11.5025V11.8382V13.038C11.0586 13.6357 11.5617 14.1208 12.1816 14.1208H18.8475H18.8767C19.0047 14.1208 19.126 14.0992 19.2405 14.0624C19.3887 14.0147 19.5213 13.9368 19.6336 13.8371C19.8581 13.6401 19.9996 13.3542 19.9996 13.038V10.6276C19.9996 10.3114 19.8581 10.0255 19.6336 9.8284ZM14.5263 12.0483C14.5263 12.3471 14.2748 12.5897 13.9648 12.5897H13.592C13.2821 12.5897 13.0305 12.3471 13.0305 12.0483V11.6887C13.0305 11.5155 13.1136 11.3617 13.2461 11.2642C13.3427 11.1928 13.4618 11.1473 13.592 11.1473H13.6863H13.9648C14.2748 11.1473 14.5263 11.3899 14.5263 11.6887V12.0483Z" fill="#38C6DD"/>
</g>

</symbol><symbol id="wallet2-icon" viewBox="0 0 13 13">
<path d="M11.125 1.125H1.875C0.841115 1.125 0 1.96612 0 3V9.99999C0 11.0339 0.841115 11.875 1.875 11.875H11.125C12.1589 11.875 13 11.0339 13 9.99999V3C13 1.96612 12.1589 1.125 11.125 1.125ZM12.25 7.625H9.5C8.87969 7.625 8.375 7.12034 8.375 6.49999C8.375 5.87965 8.87966 5.37499 9.5 5.37499H12.25V7.625ZM12.25 4.625H9.5C8.46612 4.625 7.62501 5.46611 7.62501 6.49999C7.62501 7.53388 8.46612 8.37499 9.5 8.37499H12.25V9.99999C12.25 10.6203 11.7453 11.125 11.125 11.125H1.875C1.25468 11.125 0.749988 10.6203 0.749988 9.99999V3C0.749988 2.37968 1.25465 1.87499 1.875 1.87499H11.125C11.7453 1.87499 12.25 2.37965 12.25 3V4.625Z" fill="#252525"/>
<path fill-rule="evenodd" clip-rule="evenodd" d="M1.875 0.875H11.125C12.297 0.875 13.25 1.82804 13.25 3V9.99999C13.25 11.1719 12.297 12.125 11.125 12.125H1.875C0.703044 12.125 -0.25 11.1719 -0.25 9.99999V3C-0.25 1.82804 0.703044 0.875 1.875 0.875ZM9.5 7.375H12V5.62499H9.5C9.01773 5.62499 8.625 6.01772 8.625 6.49999C8.625 6.98226 9.01775 7.375 9.5 7.375ZM9.5 4.375H12V3C12 2.51773 11.6073 2.12499 11.125 2.12499H1.875C1.39273 2.12499 0.999988 2.51775 0.999988 3V9.99999C0.999988 10.4823 1.39275 10.875 1.875 10.875H11.125C11.6073 10.875 12 10.4822 12 9.99999V8.62499H9.5C8.32805 8.62499 7.37501 7.67195 7.37501 6.49999C7.37501 5.32804 8.32805 4.375 9.5 4.375ZM1.875 1.125H11.125C12.1589 1.125 13 1.96612 13 3V9.99999C13 11.0339 12.1589 11.875 11.125 11.875H1.875C0.841115 11.875 0 11.0339 0 9.99999V3C0 1.96612 0.841115 1.125 1.875 1.125ZM12.25 7.625V5.37499H9.5C8.87966 5.37499 8.375 5.87965 8.375 6.49999C8.375 7.12034 8.87969 7.625 9.5 7.625H12.25ZM12.25 4.625V3C12.25 2.37965 11.7453 1.87499 11.125 1.87499H1.875C1.25465 1.87499 0.749988 2.37968 0.749988 3V9.99999C0.749988 10.6203 1.25468 11.125 1.875 11.125H11.125C11.7453 11.125 12.25 10.6203 12.25 9.99999V8.37499H9.5C8.46612 8.37499 7.62501 7.53388 7.62501 6.49999C7.62501 5.46611 8.46612 4.625 9.5 4.625H12.25Z" fill="#252525"/>
<path d="M9.99999 6.125H9.49999C9.29288 6.125 9.125 6.29291 9.125 6.49999C9.125 6.70711 9.29291 6.87499 9.49999 6.87499H9.99999C10.2071 6.87499 10.375 6.70708 10.375 6.49999C10.375 6.29288 10.2071 6.125 9.99999 6.125Z" fill="#252525"/>
<path fill-rule="evenodd" clip-rule="evenodd" d="M9.50038 6.02499H10.0004C10.2627 6.02499 10.4754 6.23765 10.4754 6.49999C10.4754 6.7623 10.2627 6.97498 10.0004 6.97498H9.50038C9.23807 6.97498 9.02539 6.76233 9.02539 6.49999C9.02539 6.23768 9.23804 6.02499 9.50038 6.02499ZM9.50038 6.12499H10.0004C10.2075 6.12499 10.3754 6.29288 10.3754 6.49999C10.3754 6.70707 10.2075 6.87498 10.0004 6.87498H9.50038C9.2933 6.87498 9.12539 6.7071 9.12539 6.49999C9.12539 6.2929 9.29327 6.12499 9.50038 6.12499Z" fill="#252525"/>
</symbol></svg>